<?xml version="1.0" standalone="no"?>
<svg viewBox="0 0 200 200" xmlns="http://www.w3.org/2000/svg">
  <path fill="#98C3E2" d="M35.9,-66C46.9,-55.8,56.6,-47,54.6,-36.3C52.7,-25.5,39.1,-12.8,35.6,-2C32.2,8.8,39,17.6,42.4,30.8C45.8,44,45.7,61.5,38.1,62.2C30.4,63,15.2,46.8,4.2,39.5C-6.8,32.2,-13.5,33.6,-27.2,36.5C-41,39.3,-61.7,43.4,-65.4,37.6C-69.2,31.7,-56,15.8,-46.3,5.6C-36.6,-4.6,-30.4,-9.3,-31.1,-23C-31.9,-36.7,-39.7,-59.5,-35.7,-73.7C-31.7,-88,-15.8,-93.6,-1.7,-90.7C12.4,-87.7,24.8,-76.1,35.9,-66Z" transform="translate(100 100)" />
</svg>
