<?xml version="1.0" standalone="no"?>
<svg viewBox="0 0 200 200" xmlns="http://www.w3.org/2000/svg">
  <path fill="#126ACE" d="M36.1,-61.1C42.9,-58.7,41.8,-41.1,40.5,-28.4C39.1,-15.7,37.5,-7.8,33.7,-2.2C29.8,3.4,23.7,6.8,21.9,14C20,21.1,22.5,32.1,19.5,44.4C16.6,56.7,8.3,70.3,0.8,69C-6.8,67.7,-13.6,51.5,-19.5,40.9C-25.5,30.4,-30.6,25.5,-40.9,19.6C-51.1,13.8,-66.5,6.9,-62.9,2.1C-59.2,-2.7,-36.6,-5.3,-29.3,-16.4C-22,-27.5,-30.2,-47,-27.9,-52C-25.6,-57,-12.8,-47.6,0.9,-49.3C14.7,-50.9,29.4,-63.6,36.1,-61.1Z" transform="translate(100 100)" />
</svg>
