<?xml version="1.0" standalone="no"?>
<svg viewBox="0 0 200 200" xmlns="http://www.w3.org/2000/svg">
  <path fill="#98C3E2" d="M38.9,-59.5C44.6,-49.4,39.3,-30.3,43.3,-14.8C47.3,0.6,60.4,12.3,60.9,22.6C61.4,32.9,49.2,41.9,36.9,51C24.7,60.1,12.3,69.3,-2.1,72.2C-16.5,75,-32.9,71.5,-46.6,62.8C-60.3,54.2,-71.2,40.4,-70,26.9C-68.8,13.3,-55.4,-0.2,-50.8,-17.2C-46.2,-34.2,-50.5,-54.8,-43.5,-64.5C-36.5,-74.2,-18.3,-73,-0.8,-71.8C16.6,-70.7,33.2,-69.7,38.9,-59.5Z" transform="translate(100 100)" />
</svg>
