<?xml version="1.0" standalone="no"?>
<svg viewBox="0 0 200 200" xmlns="http://www.w3.org/2000/svg">
  <path fill="#98C3E2" d="M28.3,-55.6C32.5,-46.6,28.9,-30.6,35.2,-20.2C41.4,-9.7,57.7,-4.9,67.1,5.4C76.4,15.7,79,31.4,72.1,40.7C65.1,50,48.6,52.8,35,48.8C21.4,44.9,10.7,34.1,-2.1,37.7C-14.9,41.4,-29.8,59.3,-38.9,60.7C-48.1,62.1,-51.6,47,-52.4,34.1C-53.3,21.2,-51.6,10.6,-52.1,-0.3C-52.5,-11.1,-55.2,-22.3,-54.4,-35.2C-53.5,-48.1,-49.1,-62.8,-39.5,-68.6C-29.8,-74.5,-14.9,-71.4,-1.4,-69C12.1,-66.5,24.1,-64.6,28.3,-55.6Z" transform="translate(100 100)" />
</svg>
