<?xml version="1.0" standalone="no"?>
<svg viewBox="0 0 200 200" xmlns="http://www.w3.org/2000/svg">
  <path fill="#488ED6" d="M35.6,-61C45.4,-49.2,52,-37.9,58.7,-26C65.5,-14,72.5,-1.3,73,12C73.5,25.4,67.5,39.3,58.8,52.9C50.1,66.5,38.7,79.7,24.7,83.5C10.7,87.4,-5.9,81.9,-22.6,76.9C-39.3,72,-56.1,67.6,-66.5,56.9C-76.8,46.2,-80.6,29.2,-81.3,12.8C-82,-3.7,-79.6,-19.5,-72.1,-31.7C-64.6,-43.9,-51.9,-52.5,-39,-62.8C-26.2,-73.2,-13.1,-85.4,-0.1,-85.3C12.9,-85.2,25.9,-72.8,35.6,-61Z" transform="translate(100 100)" />
</svg>
