<?xml version="1.0" standalone="no"?>
<svg viewBox="0 0 200 200" xmlns="http://www.w3.org/2000/svg">
  <path fill="#98C3E2" d="M38.3,-48.1C52.6,-50.4,69.3,-44.8,70.6,-34.4C72,-24,58,-8.9,55.5,7.9C53,24.6,61.8,42.9,57.7,53C53.6,63.1,36.6,65,22.6,62.4C8.6,59.8,-2.4,52.8,-11.3,46.5C-20.2,40.3,-27,34.8,-36.1,28.8C-45.3,22.8,-56.8,16.3,-59.4,7.7C-62,-1,-55.7,-11.8,-52.7,-26.4C-49.7,-41.1,-50,-59.6,-41.7,-60.2C-33.5,-60.7,-16.7,-43.2,-2.4,-39.4C12,-35.7,24,-45.8,38.3,-48.1Z" transform="translate(100 100)" />
</svg>
